{
  "accessors": [
    {
      "bufferView": 2,
      "componentType": 5126,
      "count": 200,
      "max": [
        146.4840850830078,
        113.1197280883789,
        183.4870147705078
      ],
      "min": [
        -158.91976928710938,
        -123.59123992919922,
        5.14736795425415
      ],
      "type": "VEC3"
    },
    {
      "bufferView": 2,
      "byteOffset": 2400,
      "componentType": 5126,
      "count": 200,
      "max": [
        0.6882556676864624,
        0.8477105498313904,
        0.9797496795654297
      ],
      "min": [
        -0.9831967949867249,
        -0.9954541325569153,
        -0.9012694954872131
      ],
      "type": "VEC3"
    },
    {
      "bufferView": 1,
      "componentType": 5126,
      "count": 200,
      "max": [
        0.5853235721588135,
        0.9879215359687805
      ],
      "min": [
        0.026821821928024292,
        0.03527650982141495
      ],
      "type": "VEC2"
    },
    {
      "bufferView": 0,
      "componentType": 5125,
      "count": 972,
      "type": "SCALAR"
    },
    {
      "bufferView": 2,
      "byteOffset": 4800,
      "componentType": 5126,
      "count": 138,
      "max": [
        155.8768768310547,
        120.05653381347656,
        11.273526191711426
      ],
      "min": [
        141.8843994140625,
        107.38966369628906,
        9.9999998245167e-15
      ],
      "type": "VEC3"
    },
    {
      "bufferView": 2,
      "byteOffset": 6456,
      "componentType": 5126,
      "count": 138,
      "max": [
        0.9842168092727661,
        0.9978389739990234,
        0.9774805307388306
      ],
      "min": [
        -0.8784603476524353,
        -0.9732270240783691,
        -0.9803880453109741
      ],
      "type": "VEC3"
    },
    {
      "bufferView": 1,
      "byteOffset": 1600,
      "componentType": 5126,
      "count": 138,
      "max": [
        0.2348484992980957,
        0.03527764230966568
      ],
      "min": [
        0.026821821928024292,
        0.019999999552965164
      ],
      "type": "VEC2"
    },
    {
      "bufferView": 0,
      "byteOffset": 3888,
      "componentType": 5125,
      "count": 684,
      "type": "SCALAR"
    }
  ],
  "asset": {
    "extras": {
      "author": "sbirukov599 (https://sketchfab.com/sbirukov599)",
      "license": "CC-BY-4.0 (http://creativecommons.org/licenses/by/4.0/)",
      "source": "https://sketchfab.com/3d-models/drum-stick-316ea23208764ba1929f9974714f681a",
      "title": "Drum Stick"
    },
    "generator": "Sketchfab-12.85.0",
    "version": "2.0"
  },
  "bufferViews": [
    {
      "buffer": 0,
      "byteLength": 6624,
      "name": "floatBufferViews",
      "target": 34963
    },
    {
      "buffer": 0,
      "byteLength": 2704,
      "byteOffset": 6624,
      "byteStride": 8,
      "name": "floatBufferViews",
      "target": 34962
    },
    {
      "buffer": 0,
      "byteLength": 8112,
      "byteOffset": 9328,
      "byteStride": 12,
      "name": "floatBufferViews",
      "target": 34962
    }
  ],
  "buffers": [
    {
      "byteLength": 17440,
      "uri": "scene.bin"
    }
  ],
  "images": [
    {
      "uri": "textures/01_-_Default_baseColor.png"
    }
  ],
  "materials": [
    {
      "doubleSided": true,
      "name": "01_-_Default",
      "pbrMetallicRoughness": {
        "baseColorTexture": {
          "index": 0
        },
        "metallicFactor": 0.0,
        "roughnessFactor": 0.8929713596497552
      }
    },
    {
      "doubleSided": true,
      "name": "Material_89",
      "pbrMetallicRoughness": {
        "baseColorFactor": [
          0.976471,
          0.87451,
          0.713726,
          1.0
        ],
        "metallicFactor": 0.0,
        "roughnessFactor": 0.8929713596497552
      }
    }
  ],
  "meshes": [
    {
      "name": "Drum_Stick_1_01 - Default_0",
      "primitives": [
        {
          "attributes": {
            "NORMAL": 1,
            "POSITION": 0,
            "TEXCOORD_0": 2
          },
          "indices": 3,
          "material": 0,
          "mode": 4
        }
      ]
    },
    {
      "name": "Drum_Stick_1_Material #89_0",
      "primitives": [
        {
          "attributes": {
            "NORMAL": 5,
            "POSITION": 4,
            "TEXCOORD_0": 6
          },
          "indices": 7,
          "material": 1,
          "mode": 4
        }
      ]
    }
  ],
  "nodes": [
    {
      "children": [
        1
      ],
      "matrix": [
        1.0,
        0.0,
        0.0,
        0.0,
        0.0,
        2.220446049250313e-16,
        -1.0,
        0.0,
        0.0,
        1.0,
        2.220446049250313e-16,
        0.0,
        0.0,
        0.0,
        0.0,
        1.0
      ],
      "name": "Sketchfab_model"
    },
    {
      "children": [
        2
      ],
      "matrix": [
        0.0010000000474974513,
        0.0,
        0.0,
        0.0,
        0.0,
        0.0,
        0.0010000000474974513,
        0.0,
        0.0,
        -0.0010000000474974513,
        0.0,
        0.0,
        0.0,
        0.0,
        0.0,
        1.0
      ],
      "name": "drum stick.FBX"
    },
    {
      "children": [
        3
      ],
      "name": "RootNode"
    },
    {
      "children": [
        4
      ],
      "matrix": [
        0.7241230113894563,
        -0.3177278385016492,
        -0.6121232596604504,
        0.0,
        0.5539358807468722,
        -0.26079685603468605,
        0.7906579790931159,
        0.0,
        -0.4108538723164872,
        -0.9116106737656668,
        -0.012848154694528269,
        0.0,
        -91.91364288330078,
        -91.7435073852539,
        56.11918258666992,
        1.0
      ],
      "name": "Drum_Stick_1"
    },
    {
      "children": [
        5,
        6
      ],
      "matrix": [
        1.0,
        0.0,
        -0.0,
        0.0,
        0.0,
        1.0,
        0.0,
        0.0,
        0.0,
        0.0,
        1.0,
        0.0,
        1.5214462280273438,
        1.7673530578613281,
        -91.7435073852539,
        1.0
      ],
      "name": "Object_4"
    },
    {
      "mesh": 0,
      "name": "Drum_Stick_1_01 - Default_0"
    },
    {
      "mesh": 1,
      "name": "Drum_Stick_1_Material #89_0"
    }
  ],
  "samplers": [
    {
      "magFilter": 9729,
      "minFilter": 9987,
      "wrapS": 10497,
      "wrapT": 10497
    }
  ],
  "scene": 0,
  "scenes": [
    {
      "name": "Sketchfab_Scene",
      "nodes": [
        0
      ]
    }
  ],
  "textures": [
    {
      "sampler": 0,
      "source": 0
    }
  ]
}
